<svg xmlns="http://www.w3.org/2000/svg" viewBox="0 0 512 512">
  <circle cx="256" cy="256" r="256" fill="#3b5bdb"/>
  <path fill="white" d="M256 100c-10 0-20 5-25 15l-50 100c-5 10-5 20 0 30s15 15 25 15h100c10 0 20-5 25-15s5-20 0-30l-50-100C276 105 266 100 256 100z"/>
  <path fill="white" d="M256 280c-10 0-20 5-25 15l-25 50c-5 10-5 20 0 30s15 15 25 15h50c10 0 20-5 25-15s5-20 0-30l-25-50C276 285 266 280 256 280z"/>
  <path fill="white" d="M156 180c-10 0-20 5-25 15l-25 50c-5 10-5 20 0 30s15 15 25 15h50c10 0 20-5 25-15s5-20 0-30l-25-50C176 185 166 180 156 180z"/>
  <path fill="white" d="M356 180c-10 0-20 5-25 15l-25 50c-5 10-5 20 0 30s15 15 25 15h50c10 0 20-5 25-15s5-20 0-30l-25-50C376 185 366 180 356 180z"/>
</svg>