<svg xmlns="http://www.w3.org/2000/svg" viewBox="0 0 512 512">
  <path d="M256 0c141.4 0 256 114.6 256 256S397.4 512 256 512 0 397.4 0 256 114.6 0 256 0z" fill="#3b5bdb"/>
  <path d="M256 80c-30 0-50 10-70 30-20 20-30 40-30 70v30h-30c-30 0-50 10-70 30-20 20-30 40-30 70s10 50 30 70c20 20 40 30 70 30h30v30c0 30 10 50 30 70 20 20 40 30 70 30s50-10 70-30c20-20 30-40 30-70v-30h30c30 0 50-10 70-30 20-20 30-40 30-70s-10-50-30-70c-20-20-40-30-70-30h-30v-30c0-30-10-50-30-70-20-20-40-30-70-30z" fill="white"/>
  <path d="M256 120c20 0 40 5 50 15 10 10 15 30 15 50v50h50c20 0 40 5 50 15 10 10 15 30 15 50s-5 40-15 50c-10 10-30 15-50 15h-50v50c0 20-5 40-15 50-10 10-30 15-50 15s-40-5-50-15c-10-10-15-30-15-50v-50h-50c-20 0-40-5-50-15-10-10-15-30-15-50s5-40 15-50c10-10 30-15 50-15h50v-50c0-20 5-40 15-50 10-10 30-15 50-15z" fill="#3b5bdb"/>
  <path d="M256 160c10 0 20 5 25 10 5 5 10 15 10 25v70h70c10 0 20 5 25 10 5 5 10 15 10 25s-5 20-10 25c-5 5-15 10-25 10h-70v70c0 10-5 20-10 25-5 5-15 10-25 10s-20-5-25-10c-5-5-10-15-10-25v-70h-70c-10 0-20-5-25-10-5-5-10-15-10-25s5-20 10-25c5-5 15-10 25-10h70v-70c0-10 5-20 10-25 5-5 15-10 25-10z" fill="white"/>
</svg>