<svg xmlns="http://www.w3.org/2000/svg" viewBox="0 0 512 512" fill="#3b5bdb">
  <path d="M256 0C114.6 0 0 114.6 0 256s114.6 256 256 256s256-114.6 256-256S397.4 0 256 0z"/>
  <path fill="white" d="M256 48c114.7 0 208 93.31 208 208S370.7 464 256 464s-208-93.31-208-208S141.3 48 256 48z"/>
  <path fill="#3b5bdb" d="M256 336c35.35 0 64-28.65 64-64c0-35.35-28.65-64-64-64s-64 28.65-64 64C192 307.3 220.7 336 256 336z"/>
  <path fill="white" d="M256 224c26.51 0 48 21.49 48 48s-21.49 48-48 48s-48-21.49-48-48S229.5 224 256 224z"/>
  <path fill="#3b5bdb" d="M256 176c8.837 0 16-7.163 16-16c0-8.837-7.163-16-16-16s-16 7.163-16 16C240 168.8 247.2 176 256 176z"/>
  <path fill="#3b5bdb" d="M256 144c8.837 0 16-7.163 16-16c0-8.837-7.163-16-16-16s-16 7.163-16 16C240 136.8 247.2 144 256 144z"/>
  <path fill="#3b5bdb" d="M288 192c8.837 0 16-7.163 16-16c0-8.837-7.163-16-16-16s-16 7.163-16 16C272 184.8 279.2 192 288 192z"/>
  <path fill="#3b5bdb" d="M224 192c8.837 0 16-7.163 16-16c0-8.837-7.163-16-16-16s-16 7.163-16 16C208 184.8 215.2 192 224 192z"/>
</svg>