<svg xmlns="http://www.w3.org/2000/svg" viewBox="0 0 512 512" fill="#3b5bdb">
  <path d="M256 0C114.6 0 0 114.6 0 256s114.6 256 256 256s256-114.6 256-256S397.4 0 256 0z"/>
  <path fill="white" d="M256 80c97.2 0 176 78.8 176 176s-78.8 176-176 176s-176-78.8-176-176S158.8 80 256 80z"/>
  <path fill="white" d="M150 180c0 0 40-30 106-30s106 30 106 30l-10 20c0 0-40-25-96-25s-96 25-96 25L150 180z"/>
  <path fill="white" d="M180 140c0 0 30-20 76-20s76 20 76 20l-10 15c0 0-30-15-66-15s-66 15-66 15L180 140z"/>
  <path fill="white" d="M200 120l56-20l56 20l-56 10L200 120z"/>
  <path fill="white" d="M150 240c0 0 40 60 106 60s106-60 106-60v40c0 0-40 70-106 70s-106-70-106-70V240z"/>
  <path fill="white" d="M150 320c0 0 40 40 106 40s106-40 106-40v30c0 0-40 50-106 50s-106-50-106-50V320z"/>
  <path fill="white" d="M256 370c30 0 60-10 60-10v20c0 0-30 20-60 20s-60-20-60-20v-20C196 360 226 370 256 370z"/>
</svg>