<svg xmlns="http://www.w3.org/2000/svg" viewBox="0 0 512 512">
  <circle cx="256" cy="256" r="256" fill="#3b5bdb"/>
  <path fill="white" d="M256 80c-20 0-40 10-50 30l-30 60c-10 20-10 40 0 60s30 30 50 30h60c20 0 40-10 50-30s10-40 0-60l-30-60C296 90 276 80 256 80z"/>
  <path fill="white" d="M256 280c-20 0-40 10-50 30l-30 60c-10 20-10 40 0 60s30 30 50 30h60c20 0 40-10 50-30s10-40 0-60l-30-60C296 290 276 280 256 280z"/>
  <path fill="white" d="M156 180c-20 0-40 10-50 30l-30 60c-10 20-10 40 0 60s30 30 50 30h60c20 0 40-10 50-30s10-40 0-60l-30-60C196 190 176 180 156 180z"/>
  <path fill="white" d="M356 180c-20 0-40 10-50 30l-30 60c-10 20-10 40 0 60s30 30 50 30h60c20 0 40-10 50-30s10-40 0-60l-30-60C396 190 376 180 356 180z"/>
</svg>