<svg xmlns="http://www.w3.org/2000/svg" viewBox="0 0 512 512">
  <circle cx="256" cy="256" r="256" fill="#3b5bdb"/>
  <path d="M256 100c-20 0-40 10-50 30-10 20-10 40 0 60 10 20 30 30 50 30s40-10 50-30c10-20 10-40 0-60-10-20-30-30-50-30z" fill="white"/>
  <path d="M256 240c-20 0-40 10-50 30-10 20-10 40 0 60 10 20 30 30 50 30s40-10 50-30c10-20 10-40 0-60-10-20-30-30-50-30z" fill="white"/>
  <path d="M136 170c-20 0-40 10-50 30-10 20-10 40 0 60 10 20 30 30 50 30s40-10 50-30c10-20 10-40 0-60-10-20-30-30-50-30z" fill="white"/>
  <path d="M376 170c-20 0-40 10-50 30-10 20-10 40 0 60 10 20 30 30 50 30s40-10 50-30c10-20 10-40 0-60-10-20-30-30-50-30z" fill="white"/>
  <path d="M256 130c10 0 20 5 25 15 5 10 5 20 0 30-5 10-15 15-25 15s-20-5-25-15c-5-10-5-20 0-30 5-10 15-15 25-15z" fill="#3b5bdb"/>
  <path d="M256 270c10 0 20 5 25 15 5 10 5 20 0 30-5 10-15 15-25 15s-20-5-25-15c-5-10-5-20 0-30 5-10 15-15 25-15z" fill="#3b5bdb"/>
  <path d="M136 200c10 0 20 5 25 15 5 10 5 20 0 30-5 10-15 15-25 15s-20-5-25-15c-5-10-5-20 0-30 5-10 15-15 25-15z" fill="#3b5bdb"/>
  <path d="M376 200c10 0 20 5 25 15 5 10 5 20 0 30-5 10-15 15-25 15s-20-5-25-15c-5-10-5-20 0-30 5-10 15-15 25-15z" fill="#3b5bdb"/>
</svg>