<svg xmlns="http://www.w3.org/2000/svg" viewBox="0 0 512 512">
  <circle cx="256" cy="256" r="256" fill="#3b5bdb"/>
  <path d="M256 100c-30 0-60 20-60 50v30h-30c-30 0-60 20-60 50s30 50 60 50h30v30c0 30 30 50 60 50s60-20 60-50v-30h30c30 0 60-20 60-50s-30-50-60-50h-30v-30c0-30-30-50-60-50z" fill="white"/>
  <path d="M256 150c10 0 20 10 20 20v60h60c10 0 20 10 20 20s-10 20-20 20h-60v60c0 10-10 20-20 20s-20-10-20-20v-60h-60c-10 0-20-10-20-20s10-20 20-20h60v-60c0-10 10-20 20-20z" fill="#3b5bdb"/>
  <path d="M150 120c0 0 40-20 106-20s106 20 106 20l-10 20c0 0-40-15-96-15s-96 15-96 15L150 120z" fill="white"/>
  <path d="M180 90c0 0 30-10 76-10s76 10 76 10l-10 10c0 0-30-5-66-5s-66 5-66 5L180 90z" fill="white"/>
  <path d="M200 80l56-10l56 10l-56 5L200 80z" fill="white"/>
</svg>